<svg width="18" height="14" viewBox="0 0 18 14" fill="none" xmlns="http://www.w3.org/2000/svg">
<path fill-rule="evenodd" clip-rule="evenodd" d="M3.91957 4.02008e-07H9.08044C9.61459 -1.02672e-05 10.0604 -1.90884e-05 10.4247 0.02974C10.8046 0.0607778 11.1612 0.127889 11.4985 0.299733C12.0159 0.563385 12.4366 0.984081 12.7003 1.50153C12.8721 1.83879 12.9392 2.19545 12.9703 2.57533C12.9903 2.82105 12.9969 3.10391 12.999 3.42597L14.4703 2.54321C14.8417 2.3203 15.164 2.1269 15.4344 1.99667C15.7075 1.8651 16.0409 1.73911 16.4124 1.77374C16.9103 1.82016 17.3646 2.07736 17.6606 2.48044C17.8814 2.78119 17.9449 3.13191 17.9726 3.43379C18 3.73264 18 4.10852 18 4.54177V9.45823C18 9.89148 18 10.2674 17.9726 10.5662C17.9449 10.8681 17.8814 11.2188 17.6606 11.5196C17.3646 11.9226 16.9103 12.1798 16.4124 12.2263C16.0409 12.2609 15.7075 12.1349 15.4344 12.0033C15.164 11.8731 14.8417 11.6797 14.4702 11.4568L12.999 10.574C12.9969 10.8961 12.9903 11.179 12.9703 11.4247C12.9392 11.8046 12.8721 12.1612 12.7003 12.4985C12.4366 13.0159 12.0159 13.4366 11.4985 13.7003C11.1612 13.8721 10.8046 13.9392 10.4247 13.9703C10.0604 14 9.6146 14 9.08045 14H3.91955C3.3854 14 2.93956 14 2.57533 13.9703C2.19545 13.9392 1.83879 13.8721 1.50153 13.7003C0.984081 13.4366 0.563385 13.0159 0.299733 12.4985C0.127889 12.1612 0.0607778 11.8046 0.02974 11.4247C-1.90884e-05 11.0604 -1.02672e-05 10.6146 4.02008e-07 10.0804V3.91957C-1.02672e-05 3.38541 -1.90884e-05 2.93956 0.02974 2.57533C0.0607778 2.19545 0.127889 1.83879 0.299733 1.50153C0.563385 0.984081 0.984081 0.563385 1.50153 0.299733C1.83879 0.127889 2.19545 0.0607778 2.57533 0.02974C2.93956 -1.90884e-05 3.38541 -1.02672e-05 3.91957 4.02008e-07ZM13 8.82536L15.2127 10.153C15.622 10.3985 15.8847 10.5553 16.0854 10.652C16.2105 10.7122 16.2697 10.7275 16.2866 10.7311C16.348 10.722 16.4039 10.6904 16.4433 10.6424C16.4488 10.6261 16.4662 10.5675 16.4789 10.4292C16.4992 10.2073 16.5 9.90139 16.5 9.4241V4.57591C16.5 4.09861 16.4992 3.79269 16.4789 3.57084C16.4662 3.43252 16.4488 3.37393 16.4433 3.3576C16.4039 3.30959 16.348 3.27796 16.2866 3.26888C16.2697 3.27254 16.2105 3.28776 16.0854 3.34803C15.8847 3.44472 15.622 3.60147 15.2127 3.84704L13 5.17464V8.82536ZM2.69748 1.52476C2.41036 1.54822 2.27307 1.5901 2.18251 1.63624C1.94731 1.75608 1.75608 1.94731 1.63624 2.18251C1.5901 2.27307 1.54822 2.41036 1.52476 2.69748C1.50058 2.99336 1.5 3.37757 1.5 3.95V10.05C1.5 10.6224 1.50058 11.0066 1.52476 11.3025C1.54822 11.5896 1.5901 11.7269 1.63624 11.8175C1.75608 12.0527 1.94731 12.2439 2.18251 12.3638C2.27307 12.4099 2.41036 12.4518 2.69748 12.4752C2.99336 12.4994 3.37757 12.5 3.95 12.5H9.05C9.62243 12.5 10.0066 12.4994 10.3025 12.4752C10.5896 12.4518 10.7269 12.4099 10.8175 12.3638C11.0527 12.2439 11.2439 12.0527 11.3638 11.8175C11.4099 11.7269 11.4518 11.5896 11.4752 11.3025C11.4994 11.0066 11.5 10.6224 11.5 10.05V3.95C11.5 3.37757 11.4994 2.99336 11.4752 2.69748C11.4518 2.41036 11.4099 2.27307 11.3638 2.18251C11.2439 1.94731 11.0527 1.75608 10.8175 1.63624C10.7269 1.5901 10.5896 1.54822 10.3025 1.52476C10.0066 1.50058 9.62243 1.5 9.05 1.5H3.95C3.37757 1.5 2.99336 1.50058 2.69748 1.52476Z" fill="#3A3A3A"/>
</svg>
