<svg width="11" height="9" viewBox="0 0 11 9" fill="none" xmlns="http://www.w3.org/2000/svg">
<path fill-rule="evenodd" clip-rule="evenodd" d="M2.39529 2.58434e-07H5.54915C5.87558 -6.60036e-06 6.14804 -1.22711e-05 6.37063 0.0191185C6.60278 0.0390714 6.82074 0.0822143 7.02684 0.192685C7.34306 0.362176 7.60015 0.632624 7.76127 0.965267C7.86629 1.18208 7.9073 1.41136 7.92627 1.65557C7.93854 1.81353 7.94253 1.99537 7.94382 2.20241L8.84293 1.63492C9.06995 1.49162 9.2669 1.3673 9.43212 1.28357C9.59902 1.19899 9.80277 1.118 10.0298 1.14026C10.3341 1.1701 10.6117 1.33545 10.7926 1.59457C10.9275 1.78791 10.9663 2.01337 10.9833 2.20744C11 2.39955 11 2.64119 11 2.91971V6.08029C11 6.35881 11 6.60045 10.9833 6.79256C10.9663 6.98663 10.9275 7.21209 10.7926 7.40543C10.6117 7.66456 10.3341 7.8299 10.0298 7.85974C9.80277 7.882 9.59902 7.80101 9.43212 7.71643C9.2669 7.6327 9.06994 7.50837 8.84291 7.36507L7.94382 6.79759C7.94253 7.00463 7.93854 7.18647 7.92627 7.34443C7.9073 7.58864 7.86629 7.81792 7.76127 8.03473C7.60015 8.36738 7.34306 8.63782 7.02684 8.80731C6.82074 8.91779 6.60278 8.96093 6.37063 8.98088C6.14805 9.00001 5.87559 9.00001 5.54917 9H2.39528C2.06886 9.00001 1.7964 9.00001 1.57381 8.98088C1.34166 8.96093 1.1237 8.91779 0.9176 8.80731C0.601383 8.63782 0.344291 8.36738 0.18317 8.03473C0.0781543 7.81792 0.037142 7.58864 0.0181744 7.34443C-1.16651e-05 7.11028 -6.27441e-06 6.82366 2.45672e-07 6.48028V2.51972C-6.27441e-06 2.17634 -1.16651e-05 1.88972 0.0181744 1.65557C0.037142 1.41136 0.0781543 1.18208 0.18317 0.965267C0.344291 0.632624 0.601383 0.362176 0.9176 0.192685C1.1237 0.0822143 1.34166 0.0390714 1.57381 0.0191185C1.7964 -1.22711e-05 2.06886 -6.60036e-06 2.39529 2.58434e-07ZM7.94444 5.67344L9.29664 6.52691C9.54675 6.68477 9.7073 6.78554 9.82995 6.84769C9.90642 6.88644 9.9426 6.89622 9.9529 6.89858C9.99044 6.89274 10.0246 6.8724 10.0487 6.84155C10.052 6.83104 10.0627 6.79338 10.0704 6.70446C10.0829 6.56185 10.0833 6.36518 10.0833 6.05835V2.94165C10.0833 2.63482 10.0829 2.43815 10.0704 2.29554C10.0627 2.20662 10.052 2.16896 10.0487 2.15845C10.0246 2.1276 9.99044 2.10726 9.9529 2.10142C9.9426 2.10378 9.90642 2.11356 9.82995 2.15231C9.7073 2.21446 9.54675 2.31523 9.29664 2.47309L7.94444 3.32656V5.67344ZM1.64846 0.980202C1.47299 0.995282 1.3891 1.02221 1.33376 1.05187C1.19002 1.12891 1.07316 1.25184 0.999926 1.40304C0.971727 1.46126 0.946133 1.54951 0.931797 1.73409C0.917023 1.9243 0.916667 2.1713 0.916667 2.53929V6.46071C0.916667 6.8287 0.917023 7.0757 0.931797 7.26591C0.946133 7.45049 0.971727 7.53874 0.999926 7.59696C1.07316 7.74816 1.19002 7.87109 1.33376 7.94813C1.3891 7.97779 1.47299 8.00472 1.64846 8.0198C1.82927 8.03534 2.06407 8.03571 2.41389 8.03571H5.53056C5.88037 8.03571 6.11517 8.03534 6.29599 8.0198C6.47145 8.00472 6.55534 7.97779 6.61069 7.94813C6.75442 7.87109 6.87128 7.74816 6.94452 7.59696C6.97272 7.53874 6.99831 7.45049 7.01265 7.26591C7.02742 7.0757 7.02778 6.8287 7.02778 6.46071V2.53929C7.02778 2.1713 7.02742 1.9243 7.01265 1.73409C6.99831 1.54951 6.97272 1.46126 6.94452 1.40304C6.87128 1.25184 6.75442 1.12891 6.61069 1.05187C6.55534 1.02221 6.47145 0.995282 6.29599 0.980202C6.11517 0.964661 5.88037 0.964286 5.53056 0.964286H2.41389C2.06407 0.964286 1.82927 0.964661 1.64846 0.980202Z" fill="black"/>
</svg>
