<svg width="18" height="18" viewBox="0 0 18 18" fill="none" xmlns="http://www.w3.org/2000/svg">
<path d="M6.61863 2.61863L5.01541 1.01541C4.84547 0.845471 4.61498 0.75 4.37465 0.75C2.37281 0.75 0.75 2.37281 0.75 4.37465V6.08441C0.75 7.17869 1.01357 8.25687 1.51842 9.22774C3.1335 12.3337 5.66635 14.8665 8.77226 16.4816C9.74312 16.9864 10.8213 17.25 11.9156 17.25H14.3957C15.9721 17.25 17.25 15.9721 17.25 14.3957C17.25 13.6799 16.8923 13.0115 16.2967 12.6145L15.1302 11.8368C14.8165 11.6277 14.6597 11.5231 14.4906 11.4812C14.3326 11.4421 14.1674 11.4421 14.0094 11.4812C13.8403 11.5231 13.6835 11.6277 13.3698 11.8368L12.5554 12.3797C12.2518 12.5821 12.1 12.6833 11.9443 12.7525C11.4914 12.9537 10.9799 12.9796 10.509 12.8251C10.3472 12.772 10.1859 12.6867 9.86345 12.5159L9.6561 12.4062C9.18021 12.1542 8.94226 12.0283 8.71769 11.8897C7.65739 11.2355 6.76455 10.3426 6.11031 9.28231C5.97175 9.05774 5.84576 8.81977 5.59383 8.3439C5.44813 8.06869 5.37527 7.93107 5.32748 7.79866C5.09845 7.16405 5.20481 6.45674 5.61034 5.91754C5.69496 5.80504 5.80506 5.69494 6.02526 5.47474L6.61863 4.88137C7.01465 4.48535 7.21265 4.28735 7.28684 4.05902C7.3521 3.85817 7.3521 3.64183 7.28684 3.44098C7.21265 3.21265 7.01465 3.01465 6.61863 2.61863Z" stroke="black" stroke-width="1.5" stroke-linejoin="round"/>
</svg>
