<svg width="715" height="378" viewBox="0 0 715 378" fill="none" xmlns="http://www.w3.org/2000/svg">
<path d="M693 265.235C693 315.243 659.505 378 561.284 378C463.062 378 399 338.178 399 288.171C399 238.163 463.062 168 561.284 168C659.505 168 693 215.228 693 265.235Z" fill="#A5D0D0"/>
<path d="M715 169.598C715 191.506 700.303 219 657.206 219C614.109 219 586 201.554 586 179.646C586 157.738 614.109 127 657.206 127C700.303 127 715 147.69 715 169.598Z" fill="#A5D0D0"/>
<path d="M529 175.024C529 265.037 468.731 378 292 378C115.269 378 0 306.32 0 216.307C0 126.294 115.269 0 292 0C468.731 0 529 85.0109 529 175.024Z" fill="#E1EFEF"/>
</svg>
