<svg width="1060" height="576" viewBox="0 0 1060 576" fill="none" xmlns="http://www.w3.org/2000/svg">
<path d="M1060 445.866C1060 509.847 948.733 561.714 811.477 561.714C674.221 561.714 318 604.957 318 540.976C318 476.994 467.118 384.008 604.374 384.008C741.63 384.008 1060 381.884 1060 445.866Z" fill="#C3E0DF"/>
<path d="M504 436.265C504 385.309 391.176 344 252 344C112.824 344 0 385.309 0 436.265C0 487.222 226.224 457.235 365.4 457.235C504.576 457.235 504 487.222 504 436.265Z" fill="#E1EFEF"/>
<path d="M698.304 266.61L625.364 365.39C625.364 365.39 626.397 369.509 633.327 369.129C640.257 368.749 699.118 273.725 699.118 273.725" fill="white"/>
<path d="M580.764 389.027L572.52 388.267C572.52 388.267 564.685 382.759 576.644 379.929C588.603 377.099 625.364 365.39 625.364 365.39C625.364 365.39 625.364 369.195 633.327 369.129L628.389 376.318C628.389 376.318 649.39 392.402 660.051 385.804" fill="white"/>
<path d="M768.141 304.837V272.598C768.141 272.598 755.826 281.658 742.095 281.477" fill="white"/>
<path d="M730.028 172.765C730.028 172.765 735.842 169.823 740.731 169.939C740.731 169.939 747.71 170.786 749.355 171.422L756.863 174.314C756.863 174.314 805.055 201.724 812.894 205.062C820.733 208.4 822.65 216.874 822.65 216.874L823.902 220.072C845.085 223.741 839.998 234.917 839.998 234.917C839.998 234.917 835.245 245.259 826.572 238.251C817.898 231.244 806.22 226.827 806.22 226.827C782.786 217.49 768.855 235.082 764.186 240.338C759.516 245.593 756.847 245.759 756.847 245.759L751.574 246.337C751.574 246.337 757.351 253.423 748.686 255.918C740.02 258.414 734.64 244.631 734.64 244.631C718.755 259.856 720.329 232.294 720.329 232.294L721.615 207.847L722.197 198.203C739.09 188.622 732.917 178.876 732.917 178.876C732.917 178.876 731.669 175.384 730.024 172.769C729.677 172.22 729.313 171.707 728.941 171.273C728.226 170.443 727.474 169.906 726.743 169.947C723.817 170.108 714.912 182.057 703.924 207.124C692.936 232.19 699.114 273.734 699.114 273.734" fill="white"/>
<path d="M728.578 295.866C728.578 295.866 714.594 326.164 714.61 328.853C714.61 328.853 743.971 392.534 781.302 404.586H830.692C830.692 404.586 840.481 404.186 844.68 399.207C845.502 398.236 846.109 397.088 846.386 395.736C848.097 387.461 807.918 350.272 807.918 350.272C807.918 350.272 795.765 336.096 783.368 321.962C774.05 311.339 764.595 300.742 760.062 296.209C749.496 285.645 728.367 270.734 712.829 265.759C697.292 260.785 640.737 358.349 640.737 358.349L628.393 376.322C628.393 376.322 584.256 382.627 581.731 386.829C579.206 391.031 580.987 395.162 580.987 395.162C580.987 395.162 589.855 400.554 607.831 398.158C625.807 395.761 652.758 393.423 652.758 393.423L714.61 328.853C714.61 328.853 716.02 280.571 717.784 280.571" fill="white"/>
<path d="M835.799 239.705C835.799 239.705 846.386 252.484 847.812 255.339C849.238 258.194 869.503 288.442 869.788 322.115C870.073 355.788 858.37 390.89 846.382 395.741" fill="white"/>
<path d="M618.191 367.291C618.191 367.291 623.162 368.183 624.46 371.348L618.191 367.291Z" fill="white"/>
<path d="M613.083 369.187C613.083 369.187 617.972 368.468 618.191 372.212L613.083 369.187Z" fill="white"/>
<path d="M621.323 377.393C621.323 377.393 630.642 379.839 632.588 383.726L621.323 377.393Z" fill="white"/>
<path d="M615.637 378.313C615.637 378.313 624.257 380.557 625.364 383.726L615.637 378.313Z" fill="white"/>
<path d="M812.319 293.354C812.319 293.354 838.564 308.439 846.44 330.37L812.319 293.354Z" fill="white"/>
<path d="M707.995 198.224C707.995 198.224 716.974 199.848 722.197 198.199L707.995 198.224Z" fill="white"/>
<path d="M635.778 193.472C635.666 176.442 644.923 164.171 653.613 163.262C657.452 162.861 663.113 164.476 667.485 167.224C669.671 168.6 671.332 169.678 671.944 171.682C673.229 175.913 669.146 182.048 664.018 183.073C659.882 183.899 655.625 181.288 653.617 178.615C648.543 171.86 652.832 158.064 664.018 143.946" fill="white"/>
<path d="M717.855 42L707.586 56.2583L720.413 57.7787C716.136 64.8769 711.859 71.9751 707.586 79.0691" fill="white"/>
<path d="M835.059 89.603C833.712 89.1444 807.067 80.5382 787.451 97.6143C774.851 108.58 772.83 123.454 772.368 127.304C772.066 129.82 769.603 152.805 783.207 164.063C800.422 178.309 833.638 165.737 851.551 148.041C865.176 134.584 883.048 105.229 868.99 79.2326C857.568 58.1075 828.935 46.3696 807.24 55.6699C792.132 62.1442 777.756 79.9515 782.26 93.8421C786.748 107.687 808.992 114.566 826.096 111.278C858.473 105.051 869.614 62.925 886.899 67.4492C891.825 68.7383 896.371 73.5847 896.325 77.8155C896.209 88.5701 866.527 88.2272 852.018 110.807C850.807 112.691 841.349 127.412 847.303 137.671C853.204 147.826 870.254 146.777 872.283 146.624C891.11 145.223 909.28 129.18 912.35 116.934C915.826 103.068 905.652 71.2503 768.586 1" fill="white"/>
<path d="M936 42.8381C953.137 38.0826 966.588 38.2314 969.373 43.776C971.017 47.0524 968.716 51.7708 967.021 54.1134C962.323 60.6125 952.025 63.0543 949.161 60.2241C945.831 56.927 950.223 44.1685 975.484 9" fill="white"/>
<path d="M698.304 266.61L625.364 365.39M625.364 365.39C625.364 365.39 626.397 369.509 633.327 369.129M625.364 365.39C625.364 365.39 588.603 377.099 576.644 379.929C564.685 382.759 572.52 388.267 572.52 388.267L580.764 389.027M625.364 365.39C625.364 365.39 625.364 369.195 633.327 369.129M633.327 369.129C640.257 368.749 699.118 273.725 699.118 273.725M633.327 369.129L628.389 376.318C628.389 376.318 649.39 392.402 660.051 385.804M768.141 304.837V272.598C768.141 272.598 755.826 281.658 742.095 281.477M730.028 172.765C730.028 172.765 735.842 169.823 740.731 169.939C740.731 169.939 747.71 170.786 749.355 171.422L756.863 174.314C756.863 174.314 805.055 201.724 812.894 205.062C820.733 208.4 822.65 216.874 822.65 216.874L823.902 220.072C845.085 223.741 839.998 234.917 839.998 234.917C839.998 234.917 835.245 245.259 826.572 238.251C817.898 231.244 806.22 226.827 806.22 226.827C782.786 217.49 768.855 235.082 764.186 240.338C759.516 245.593 756.847 245.759 756.847 245.759L751.574 246.337C751.574 246.337 757.351 253.423 748.686 255.918C740.02 258.414 734.64 244.631 734.64 244.631C718.755 259.856 720.329 232.294 720.329 232.294L721.615 207.847L722.197 198.203C739.09 188.622 732.917 178.876 732.917 178.876C732.917 178.876 731.669 175.384 730.024 172.769C729.677 172.22 729.313 171.707 728.941 171.273C728.226 170.443 727.474 169.906 726.743 169.947C723.817 170.108 714.912 182.057 703.924 207.124C692.936 232.19 699.114 273.734 699.114 273.734M728.578 295.866C728.578 295.866 714.594 326.164 714.61 328.853M714.61 328.853C714.61 328.853 743.971 392.534 781.302 404.586H830.692C830.692 404.586 840.481 404.186 844.68 399.207C845.502 398.236 846.109 397.088 846.386 395.736C848.097 387.461 807.918 350.272 807.918 350.272C807.918 350.272 795.765 336.096 783.368 321.962C774.05 311.339 764.595 300.742 760.062 296.209C749.496 285.645 728.367 270.734 712.829 265.759C697.292 260.785 640.737 358.349 640.737 358.349L628.393 376.322C628.393 376.322 584.256 382.627 581.731 386.829C579.206 391.031 580.987 395.162 580.987 395.162C580.987 395.162 589.855 400.554 607.831 398.158C625.807 395.761 652.758 393.423 652.758 393.423L714.61 328.853ZM714.61 328.853C714.61 328.853 716.02 280.571 717.784 280.571M835.799 239.705C835.799 239.705 846.386 252.484 847.812 255.339C849.238 258.194 869.503 288.442 869.788 322.115C870.073 355.788 858.37 390.89 846.382 395.741M618.191 367.291C618.191 367.291 623.162 368.183 624.46 371.348M613.083 369.187C613.083 369.187 617.972 368.468 618.191 372.212M621.323 377.393C621.323 377.393 630.642 379.839 632.588 383.726M615.637 378.313C615.637 378.313 624.257 380.557 625.364 383.726M812.319 293.354C812.319 293.354 838.564 308.439 846.44 330.37M707.995 198.224C707.995 198.224 716.974 199.848 722.197 198.199M635.778 193.472C635.666 176.442 644.923 164.171 653.613 163.262C657.452 162.861 663.113 164.476 667.485 167.224C669.671 168.6 671.332 169.678 671.944 171.682C673.229 175.913 669.146 182.048 664.018 183.073C659.882 183.899 655.625 181.288 653.617 178.615C648.543 171.86 652.832 158.064 664.018 143.946M717.855 42L707.586 56.2583L720.413 57.7787C716.136 64.8769 711.859 71.9751 707.586 79.0691M835.059 89.603C833.712 89.1444 807.067 80.5382 787.451 97.6143C774.851 108.58 772.83 123.454 772.368 127.304C772.066 129.82 769.603 152.805 783.207 164.063C800.422 178.309 833.638 165.737 851.551 148.041C865.176 134.584 883.048 105.229 868.99 79.2326C857.568 58.1075 828.935 46.3696 807.24 55.6699C792.132 62.1442 777.756 79.9515 782.26 93.8421C786.748 107.687 808.992 114.566 826.096 111.278C858.473 105.051 869.614 62.925 886.899 67.4492C891.825 68.7383 896.371 73.5847 896.325 77.8155C896.209 88.5701 866.527 88.2272 852.018 110.807C850.807 112.691 841.349 127.412 847.303 137.671C853.204 147.826 870.254 146.777 872.283 146.624C891.11 145.223 909.28 129.18 912.35 116.934C915.826 103.068 905.652 71.2503 768.586 1M936 42.8381C953.137 38.0826 966.588 38.2314 969.373 43.776C971.017 47.0524 968.716 51.7708 967.021 54.1134C962.323 60.6125 952.025 63.0543 949.161 60.2241C945.831 56.927 950.223 44.1685 975.484 9" stroke="black" stroke-width="2" stroke-miterlimit="10" stroke-linecap="round"/>
</svg>
