<svg width="632" height="439" viewBox="0 0 632 439" fill="none" xmlns="http://www.w3.org/2000/svg">
<path d="M632 326.235C632 376.243 598.505 439 500.284 439C402.062 439 338 399.178 338 349.171C338 299.163 402.062 229 500.284 229C598.505 229 632 276.228 632 326.235Z" fill="#A5D0D0"/>
<path d="M123 330.377C123 353.713 108.987 383 67.8941 383C26.8016 383 0 364.416 0 341.08C0 317.743 26.8016 285 67.8941 285C108.987 285 123 307.04 123 330.377Z" fill="#A5D0D0"/>
<path d="M529 175.024C529 265.037 468.731 378 292 378C115.269 378 0 306.32 0 216.307C0 126.294 115.269 0 292 0C468.731 0 529 85.0109 529 175.024Z" fill="#E1EFEF"/>
</svg>
