<svg width="15" height="15" viewBox="0 0 15 15" fill="none" xmlns="http://www.w3.org/2000/svg">
<path fill-rule="evenodd" clip-rule="evenodd" d="M6.25 1.25C3.48858 1.25 1.25 3.48858 1.25 6.25C1.25 9.01142 3.48858 11.25 6.25 11.25C9.01142 11.25 11.25 9.01142 11.25 6.25C11.25 3.48858 9.01142 1.25 6.25 1.25ZM0 6.25C0 2.79822 2.79822 0 6.25 0C9.70178 0 12.5 2.79822 12.5 6.25C12.5 7.75079 11.971 9.12804 11.0893 10.2055L14.8169 13.9331C15.061 14.1771 15.061 14.5729 14.8169 14.8169C14.5729 15.061 14.1771 15.061 13.9331 14.8169L10.2055 11.0893C9.12804 11.971 7.75079 12.5 6.25 12.5C2.79822 12.5 0 9.70178 0 6.25Z" fill="black"/>
</svg>
