<svg width="58" height="50" viewBox="0 0 58 50" fill="none" xmlns="http://www.w3.org/2000/svg">
<path d="M30.3714 12.7547L30.4472 12.7773L30.4505 12.7736C30.8086 12.8383 31.1638 12.6238 31.269 12.2686C32.228 9.04633 35.2493 6.79527 38.6153 6.79527C39.0138 6.79527 39.3371 6.47205 39.3371 6.07355C39.3371 5.67503 39.0138 5.35183 38.6153 5.35183C34.4784 5.35183 31.002 8.10622 29.8858 11.8572C29.7719 12.2393 29.9895 12.6408 30.3714 12.7547Z" fill="#69B1B0" stroke="#F9FFF9" stroke-width="0.245556"/>
<path d="M46.9999 35.4217H43.4064C43.0757 35.4217 42.8074 35.1535 42.8074 34.8228C42.8074 34.4921 43.0756 34.2238 43.4064 34.2238H46.9999C51.9535 34.2238 55.9839 30.1934 55.9839 25.2398C55.9839 20.2862 51.9535 16.2558 46.9999 16.2558H46.9135C46.7398 16.2558 46.5747 16.1805 46.4609 16.0491C46.3471 15.9178 46.2957 15.7437 46.3206 15.5717C46.374 15.1987 46.401 14.8239 46.401 14.459C46.401 10.1659 42.9079 6.67278 38.6148 6.67278C36.9446 6.67278 35.3519 7.19471 34.0085 8.18251C33.7133 8.39941 33.2941 8.30316 33.1234 7.97844C29.3189 0.733924 19.3819 -0.238941 14.2301 6.06316C12.0599 8.71814 11.2071 12.1718 11.8904 15.5379C11.9657 15.9097 11.6812 16.2562 11.3035 16.2562H11.0635C6.10988 16.2562 2.07944 20.2867 2.07944 25.2403C2.07944 30.1938 6.10988 34.2243 11.0635 34.2243H14.657C14.9877 34.2243 15.256 34.4925 15.256 34.8232C15.256 35.1539 14.9877 35.4222 14.657 35.4222H11.0635C5.44926 35.4222 0.881516 30.8544 0.881516 25.2402C0.881516 19.7835 5.19638 15.3154 10.5933 15.069C10.0863 11.5767 11.0558 8.05414 13.3026 5.30508C18.8183 -1.44276 29.3889 -0.686417 33.8573 6.83792C35.2828 5.94422 36.914 5.47539 38.6146 5.47539C43.8159 5.47539 47.9375 9.9024 47.5768 15.0746C52.924 15.3745 57.1816 19.819 57.1816 25.2398C57.1816 30.8544 52.6138 35.4217 46.9996 35.4217L46.9999 35.4217Z" fill="#69B1B0"/>
<path d="M13.8551 34.4843C13.8551 42.8086 20.6272 49.5806 28.9514 49.5806C37.2757 49.5806 44.0477 42.8085 44.0477 34.4843C44.0477 26.16 37.2757 19.388 28.9514 19.388C20.6271 19.388 13.8551 26.1601 13.8551 34.4843ZM15.2988 34.4843C15.2988 26.9565 21.4235 20.8317 28.9514 20.8317C36.4792 20.8317 42.604 26.9564 42.604 34.4843C42.604 42.0121 36.4792 48.1369 28.9514 48.1369C21.4236 48.1369 15.2988 42.0122 15.2988 34.4843Z" fill="#69B1B0" stroke="#F9FFF9" stroke-width="0.245556"/>
<path d="M28.6639 40.5121C28.6639 40.8221 28.9153 41.0734 29.2252 41.0734C29.535 41.0734 29.7864 40.8224 29.7864 40.5121V29.1113C29.7864 28.8014 29.5351 28.5501 29.2252 28.5501C28.9153 28.5501 28.6639 28.8014 28.6639 29.1113V40.5121Z" fill="#69B1B0" stroke="#483EA8" stroke-width="0.245556"/>
<path d="M29.2251 29.9062L26.1142 33.0171C25.8952 33.2365 25.5396 33.2364 25.3203 33.0172M29.2251 29.9062L25.3203 33.0172M29.2251 29.9062L32.3361 33.0172C32.4456 33.1266 32.5896 33.1815 32.733 33.1815L29.2251 29.9062ZM25.3203 33.0172C25.1011 32.7979 25.1011 32.4426 25.3203 32.2234L28.8281 28.7156L25.3203 33.0172ZM29.622 28.7155C29.4028 28.4963 29.0472 28.4962 28.8282 28.7155L32.733 33.1815C32.8761 33.1815 33.0204 33.127 33.13 33.017C33.3491 32.7977 33.3491 32.4426 33.1299 32.2234L29.622 28.7155Z" fill="#69B1B0" stroke="#483EA8" stroke-width="0.245556"/>
</svg>
